<svg width="50" height="50" viewBox="0 0 50 50" fill="none" xmlns="http://www.w3.org/2000/svg">
<g clip-path="url(#clip0_13_7118)">
<path d="M7.32236 42.6777C3.82603 39.1814 1.44501 34.7268 0.480379 29.8772C-0.484251 25.0278 0.0108322 20.001 1.90302 15.4329C3.79522 10.8647 6.99951 6.9603 11.1108 4.21326C15.222 1.46622 20.0555 -5.8963e-08 25 0C29.9446 5.8963e-08 34.7781 1.46622 38.8893 4.21326C43.0005 6.9603 46.2048 10.8647 48.097 15.4329C49.9892 20.001 50.4845 25.0278 49.5197 29.8772C48.555 34.7268 46.174 39.1814 42.6777 42.6777L25 25L7.32236 42.6777Z" fill="#1DC0AD"/>
<path d="M50 25C50 21.7169 49.3533 18.466 48.097 15.4329C46.8406 12.3997 44.9991 9.6438 42.6776 7.32235C40.3562 5.00085 37.6002 3.15938 34.5671 1.90301C31.5339 0.646645 28.2831 -5.34875e-07 25 0V25H50Z" fill="#7ED2D8"/>
<path d="M37.3744 37.3743C35.3394 39.4094 32.834 40.9111 30.08 41.7465C27.326 42.5819 24.4085 42.7252 21.5859 42.1638C18.7633 41.6023 16.1228 40.3534 13.8981 38.5277C11.6735 36.702 9.93346 34.3558 8.83211 31.697C7.73081 29.0382 7.30221 26.1488 7.58426 23.2847C7.86636 20.4207 8.85041 17.6704 10.4493 15.2775C12.0482 12.8846 14.2125 10.923 16.7506 9.5664C19.2887 8.20975 22.1221 7.5 25 7.5V14.8646C23.3332 14.8646 21.6922 15.2757 20.2222 16.0614C18.7523 16.8471 17.4988 17.9832 16.5728 19.3691C15.6467 20.7549 15.0768 22.3478 14.9134 24.0066C14.7501 25.6653 14.9983 27.3388 15.6361 28.8787C16.274 30.4186 17.2818 31.7774 18.5702 32.8348C19.8586 33.8922 21.388 34.6154 23.0227 34.9406C24.6575 35.2658 26.3472 35.1828 27.9422 34.6989C29.5372 34.2152 30.9882 33.3454 32.1668 32.1668L37.3744 37.3743Z" fill="#115B77"/>
</g>
<defs>
<clipPath id="clip0_13_7118">
<rect width="50" height="50" fill="white"/>
</clipPath>
</defs>
</svg>
